# xmcd CD database file
#
# Track frame offsets:
#	150
#	23128
#	37421
#	55447
#	70721
#	88555
#	108417
#	127501
#	141266
#	160155
#	174175
#	190674
#	207310
#	223877
#	240516
#	255367
#	275996
#	291504
#	306529
#	322631
#	338157
#
# Disc length: 4745 seconds
#
# Revision: 0
# Processed by: cddbd v1.5.2PL0 Copyright (c) Steve Scherf et al.
# Submitted via: CDex 1.51
#
DISCID=39128715
DTITLE=Jason Aldean - (2009) Favorites
DYEAR=2009
DGENRE=Country
TTITLE0=Hicktown
TTITLE1=Johnny Cash
TTITLE2=Wide Open
TTITLE3=Amarillo Sky
TTITLE4=This I Gotta See
TTITLE5=Do You Wish It Was Me
TTITLE6=Fast
TTITLE7=Crazy Town
TTITLE8=Even If I Wanted To
TTITLE9=I Use What I Got
TTITLE10=Lonesome USA
TTITLE11=Relentless
TTITLE12=She's Country
TTITLE13=No
TTITLE14=You're The Love I Wanna Be
TTITLE15=Back In This Cigarette
TTITLE16=I Believe In Ghosts
TTITLE17=I Break Everything I Touch
TTITLE18=Love Was Easy
TTITLE19=She Loved Me
TTITLE20=Not Every Man Lives
EXTD=YEAR: 2009
EXTT0=
EXTT1=
EXTT2=
EXTT3=
EXTT4=
EXTT5=
EXTT6=
EXTT7=
EXTT8=
EXTT9=
EXTT10=
EXTT11=
EXTT12=
EXTT13=
EXTT14=
EXTT15=
EXTT16=
EXTT17=
EXTT18=
EXTT19=
EXTT20=
PLAYORDER=
